<svg viewBox="0 0 24 24" fill="currentColor" xmlns="http://www.w3.org/2000/svg"><path xmlns="http://www.w3.org/2000/svg" d="M4 2h3.963c.63 0 1.216.05 1.76.148.555.086 1.036.24 1.444.461.407.222.728.53.963.923.234.382.351.868.351 1.459 0 .258-.043.523-.13.794-.073.258-.197.51-.37.757-.16.233-.37.443-.63.627-.258.185-.56.32-.907.406v.074c.852.173 1.488.486 1.908.942.432.443.648 1.064.648 1.864 0 .616-.123 1.151-.37 1.607a3.068 3.068 0 0 1-1 1.107c-.42.283-.914.492-1.482.628A7.806 7.806 0 0 1 8.333 14H4V2zm3.889 4.726c.518 0 .895-.117 1.13-.35.234-.234.351-.536.351-.905 0-.37-.117-.634-.351-.794-.235-.16-.612-.24-1.13-.24H7v2.29h.889zm.222 4.837c.63 0 1.08-.117 1.352-.35.284-.234.426-.573.426-1.016 0-.443-.142-.763-.426-.96-.272-.197-.722-.295-1.352-.295H7v2.621h1.111z"/></svg>
