<svg xmlns="http://www.w3.org/2000/svg" width="24" height="24" fill="none">
  <g fill="#00ACD7" clip-path="url(#a)">
    <path fill-rule="evenodd" d="M11.75 8.783c-1.002.262-1.685.46-2.671.719-.24.066-.256.082-.463-.164-.24-.279-.415-.457-.747-.62-1.002-.507-1.972-.362-2.879.245-1.082.72-1.638 1.783-1.622 3.11.016 1.309.891 2.386 2.148 2.567 1.082.147 1.989-.246 2.704-1.08.143-.18.271-.378.43-.604H5.58c-.335 0-.415-.214-.303-.49a26.37 26.37 0 0 1 .81-1.783.43.43 0 0 1 .4-.262h5.79c-.032.443-.032.883-.096 1.326a7.07 7.07 0 0 1-1.305 3.207c-1.146 1.553-2.64 2.519-4.533 2.781-1.558.213-3.006-.098-4.277-1.08C.888 15.739.22 14.528.046 13.024-.163 11.24.348 9.639 1.398 8.23 2.529 6.71 4.022 5.745 5.85 5.4c1.494-.28 2.927-.099 4.214.8.843.572 1.446 1.36 1.845 2.308.095.145.032.225-.16.274Z" clip-rule="evenodd"/>
    <path d="M17.014 17.83c-1.446-.032-2.768-.459-3.881-1.438a5.17 5.17 0 0 1-1.718-3.158c-.287-1.848.208-3.483 1.29-4.94 1.161-1.57 2.56-2.388 4.452-2.732 1.622-.295 3.15-.131 4.533.834 1.257.883 2.036 2.078 2.243 3.647.272 2.21-.35 4.009-1.828 5.546-1.05 1.096-2.337 1.782-3.818 2.094-.43.082-.858.099-1.273.148Zm3.785-6.608c-.016-.213-.016-.377-.048-.539-.287-1.619-1.733-2.535-3.245-2.176-1.479.344-2.433 1.31-2.784 2.846-.287 1.277.32 2.568 1.462 3.093.875.393 1.75.344 2.592-.099 1.26-.672 1.944-1.72 2.023-3.125Z"/>
  </g>
  <defs>
    <clipPath id="a">
      <path fill="#fff" d="M0 0h24v24H0z"/>
    </clipPath>
  </defs>
</svg>
