<svg width="18" height="18" viewBox="0 0 2229 2074" fill="none" xmlns="http://www.w3.org/2000/svg"><path d="M1554.64 777.5H2130.35C2184.74 777.5 2228.83 821.592 2228.83 875.983V1400.38C2228.83 1600.28 2066.78 1762.33 1866.88 1762.33H1865.17C1665.27 1762.36 1503.2 1600.33 1503.17 1400.43C1503.17 1400.42 1503.17 1400.4 1503.17 1400.38V828.971C1503.17 800.544 1526.21 777.5 1554.64 777.5Z" fill="#5059C9" data-sentry-element="path" ></path><path d="M1943.75 673.833C2072.57 673.833 2177 569.403 2177 440.583C2177 311.763 2072.57 207.333 1943.75 207.333C1814.93 207.333 1710.5 311.763 1710.5 440.583C1710.5 569.403 1814.93 673.833 1943.75 673.833Z" fill="#5059C9" data-sentry-element="path" ></path><path d="M1218.08 673.834C1404.16 673.834 1555 522.991 1555 336.917C1555 150.843 1404.16 0 1218.08 0C1032.01 0 881.166 150.843 881.166 336.917C881.166 522.991 1032.01 673.834 1218.08 673.834Z" fill="#7B83EB" data-sentry-element="path" ></path><path d="M1667.32 777.5H717.01C663.267 778.83 620.753 823.431 622 877.176V1475.28C614.495 1797.8 869.657 2065.44 1192.17 2073.33C1514.68 2065.44 1769.84 1797.8 1762.33 1475.28V877.176C1763.58 823.431 1721.07 778.83 1667.32 777.5Z" fill="#7B83EB" data-sentry-element="path" ></path><path opacity="0.2" d="M1140.33 561.355V664.503C1035.37 639.646 948.654 566.034 907.083 466.5H1045.48C1097.78 466.699 1140.13 509.051 1140.33 561.355Z" fill="black" data-sentry-element="path"></path><path d="M95.01 466.5H1045.32C1097.8 466.5 1140.33 509.038 1140.33 561.51V1511.82C1140.33 1564.3 1097.79 1606.83 1045.32 1606.83H95.01C42.537 1606.83 0 1564.29 0 1511.82V561.51C0 509.038 42.538 466.5 95.01 466.5Z" fill="url(#paint0_linear_1_2)"></path><path d="M820.211 828.193H630.241V1345.49H509.211V828.193H320.123V727.844H820.211V828.193Z" fill="white"></path><defs data-sentry-element="defs" ><linearGradient id="paint0_linear_1_2" x1="198.099" y1="392.261" x2="942.234" y2="1681.07" gradientUnits="userSpaceOnUse" data-sentry-element="linearGradient" ><stop stop-color="#5A62C3" data-sentry-element="stop" ></stop><stop offset="0.5" stop-color="#4D55BD" data-sentry-element="stop" ></stop><stop offset="1" stop-color="#3940AB" data-sentry-element="stop" ></stop></linearGradient></defs></svg>
