<svg xmlns="http://www.w3.org/2000/svg" width="151" height="50" viewBox="0 0 151 50" fill="none"><rect x="10.5059" width="140" height="40" rx="4" fill="#272727"></rect><rect x="10.7559" y="0.25" width="139.5" height="39.5" rx="3.75" stroke="url(#paint0_linear_41_92)" stroke-opacity="0.1" stroke-width="0.5"></rect><rect x="0.505859" y="10" width="140" height="40" rx="4" fill="url(#paint1_linear_41_92)"></rect><rect x="0.505859" y="10" width="140" height="40" rx="4" fill="url(#paint2_linear_41_92)" fill-opacity="0.1"></rect><rect x="0.755859" y="10.25" width="139.5" height="39.5" rx="3.75" stroke="url(#paint3_linear_41_92)" stroke-opacity="0.1" stroke-width="0.5"></rect><path d="M0.505858 15.1595L0.505859 50L140.506 50L140.506 15.1595L0.505858 15.1595Z" fill="url(#paint4_radial_41_92)" fill-opacity="0.15"></path><rect x="47.957" y="23.9834" width="52.872" height="4" rx="2" fill="white" fill-opacity="0.1"></rect><rect x="36.0752" y="23.9834" width="8" height="4" rx="2" fill="white" fill-opacity="0.1"></rect><rect x="36.0752" y="32.0166" width="88.8623" height="4" rx="2" fill="white" fill-opacity="0.1"></rect><path d="M26.5059 30C26.5059 34.4183 22.9241 38 18.5059 38C14.0876 38 10.5059 34.4183 10.5059 30C10.5059 25.5817 14.0876 22 18.5059 22C22.9241 22 26.5059 25.5817 26.5059 30Z" fill="#2D2D2D"></path><path d="M26.5059 30C26.5059 34.4183 22.9241 38 18.5059 38C14.0876 38 10.5059 34.4183 10.5059 30C10.5059 25.5817 14.0876 22 18.5059 22C22.9241 22 26.5059 25.5817 26.5059 30Z" fill="url(#paint5_linear_41_92)" fill-opacity="0.2"></path><path d="M21.2422 27.6843L17.4528 32.3159L15.7686 30.6317" stroke="white" stroke-linecap="round" stroke-linejoin="round"></path><defs><linearGradient id="paint0_linear_41_92" x1="80.5059" y1="-1.19209e-06" x2="80.5059" y2="40" gradientUnits="userSpaceOnUse"><stop stop-color="white"></stop><stop offset="1" stop-color="white" stop-opacity="0"></stop></linearGradient><linearGradient id="paint1_linear_41_92" x1="70.5059" y1="10" x2="70.5059" y2="50" gradientUnits="userSpaceOnUse"><stop stop-color="#1F1F1F"></stop><stop offset="1" stop-color="#111111"></stop></linearGradient><linearGradient id="paint2_linear_41_92" x1="70.5059" y1="10" x2="70.5059" y2="50" gradientUnits="userSpaceOnUse"><stop stop-color="white" stop-opacity="0.93"></stop><stop offset="1" stop-color="white" stop-opacity="0"></stop></linearGradient><linearGradient id="paint3_linear_41_92" x1="70.5059" y1="10" x2="70.5059" y2="50" gradientUnits="userSpaceOnUse"><stop stop-color="white"></stop><stop offset="1" stop-color="white" stop-opacity="0"></stop></linearGradient><radialGradient id="paint4_radial_41_92" cx="0" cy="0" r="1" gradientUnits="userSpaceOnUse" gradientTransform="translate(70.5059 50) rotate(-90) scale(33.5962 67.5)"><stop stop-color="white"></stop><stop offset="0.365157" stop-color="white" stop-opacity="0.5"></stop><stop offset="1" stop-color="white" stop-opacity="0"></stop></radialGradient><linearGradient id="paint5_linear_41_92" x1="18.5059" y1="22" x2="18.5059" y2="38" gradientUnits="userSpaceOnUse"><stop stop-color="white"></stop><stop offset="1" stop-color="white" stop-opacity="0"></stop></linearGradient></defs></svg>
