<svg clip-rule="evenodd" fill-rule="evenodd" stroke-linejoin="round" stroke-miterlimit="2" version="1.1" viewBox="0 0 32 32" xml:space="preserve" xmlns="http://www.w3.org/2000/svg"><path d="m6.44 0.704c-0.21 0.497-0.376 1.576-0.452 3.019l1.623 0.786c-0.027-1.034 0.012-2.006 0.116-2.889 6e-3 -0.066 0.012-0.105 0.012-0.105-1e-3 0.035-0.01 0.069-0.012 0.105-0.033 0.29-0.102 1.203-7e-3 2.85 0.671-0.547 1.638-1.476 2.403-2.27-0.808-1.65-1.813-1.938-1.813-1.938s-1.437-0.58-1.87 0.442z" fill="url(#t)" fill-rule="nonzero"/><path d="m10.66 8.878c5e-3 -4e-3 9e-3 -7e-3 0.01-0.015l-0.091 0.081c-1e-3 8e-3 -0.01 0.014-0.011 0.022 0.032-0.031 0.065-0.061 0.092-0.088z" fill="none"/><path d="m11.654 11.685c-0.044 0.052-0.095 0.103-0.146 0.155 0.051-0.052 0.102-0.103 0.146-0.155z" fill="none"/><path d="m10.721 20.31c-4e-3 -0.025-0.016-0.05-0.02-0.074-0.14-0.507-0.274-0.997-0.404-1.482-0.142-0.539-0.278-1.069-0.408-1.582-0.135-0.537-0.263-1.065-0.382-1.573-0.127-0.536-0.245-1.051-0.354-1.553-0.087-0.408-0.172-0.803-0.251-1.19-0.027-0.131-0.051-0.256-0.075-0.382-0.048-0.252-0.098-0.497-0.144-0.736-0.04-0.224-0.082-0.439-0.124-0.655-0.013-0.072-0.025-0.145-0.039-0.211l-6e-3 -0.036-0.078 0.071-0.161-0.08c5e-3 0.017 6e-3 0.036 0.011 0.053 0.053 0.324 0.109 0.652 0.173 0.981 0.035 0.187 0.072 0.378 0.106 0.572 0.1 0.529 0.205 1.053 0.321 1.584 0.111 0.534 0.23 1.069 0.35 1.596 0.117 0.523 0.243 1.039 0.369 1.555 0.126 0.517 0.253 1.025 0.385 1.531 0.135 0.529 0.272 1.051 0.415 1.562 0.029 0.115 0.062 0.235 0.096 0.346 0.114 0.416 0.226 0.82 0.342 1.22l0.26 0.131 0.087-0.078c-2e-3 -0.012-4e-3 -0.024-0.011-0.033-0.172-0.523-0.318-1.039-0.458-1.537z" fill="none"/><path d="m11.466 11.877z" fill="none"/><path d="m12.065 13.168c-0.076 0.083-0.155 0.161-0.234 0.24 0.041-0.037 0.084-0.082 0.121-0.124 0.042-0.037 0.08-0.078 0.113-0.116z" fill="#be202e" fill-rule="nonzero"/><path d="m12.065 13.168c-0.076 0.083-0.155 0.161-0.234 0.24 0.041-0.037 0.084-0.082 0.121-0.124 0.042-0.037 0.08-0.078 0.113-0.116z" fill="#be202e" fill-opacity=".35" fill-rule="nonzero"/><path d="m11.471 11.873c-5e-3 4e-3 -5e-3 4e-3 -0 0 0.013-9e-3 0.023-0.024 0.037-0.033 0.051-0.052 0.102-0.103 0.146-0.155-0.057 0.062-0.122 0.123-0.183 0.188z" fill="#be202e" fill-rule="nonzero"/><path d="m11.471 11.873c-5e-3 4e-3 -5e-3 4e-3 -0 0 0.013-9e-3 0.023-0.024 0.037-0.033 0.051-0.052 0.102-0.103 0.146-0.155-0.057 0.062-0.122 0.123-0.183 0.188z" fill="#be202e" fill-opacity=".35" fill-rule="nonzero"/><path d="m8.036 9.299c-0.075-0.54-0.143-1.071-0.205-1.593-0.063-0.542-0.112-1.074-0.149-1.601-3e-3 -0.032-6e-3 -0.064-6e-3 -0.091-0.035-0.515-0.061-1.015-0.072-1.506l-1.62-0.781c-3e-3 0.098-0.011 0.199-0.015 0.305-0.016 0.388-0.028 0.8-0.032 1.234-4e-3 0.488 1e-3 0.998 0.01 1.532 0.011 0.49 0.031 1.002 0.058 1.523 0.026 0.446 0.056 0.896 0.092 1.355 0 0.02 3e-3 0.032 3e-3 0.052l2.167 1.098c-0.075-0.513-0.155-1.022-0.231-1.527z" fill="url(#i)" fill-rule="nonzero"/><path d="m11.237 22.113c0.119 0.404 0.241 0.821 0.373 1.244 3e-3 4e-3 2e-3 0.012 5e-3 0.017 0.018 0.062 0.033 0.119 0.056 0.178 0.086 0.285 0.17 0.539 0.349 1.118 0.35-0.072 0.787 0.086 1.244 0.298-0.293-0.353-0.699-0.589-1.183-0.643 1.327-0.885 2.2-2.025 2.077-3.385-0.013-0.121-0.029-0.245-0.053-0.371-0.021 0.521-0.237 0.898-0.872 1.309l-4e-3 4e-3 4e-3 -4e-3c0.6-1.055 0.765-1.772 0.694-2.697-0.017-0.22-0.045-0.453-0.085-0.704-0.192 1.379-0.932 2.271-2.015 2.799l-0.657 0.605c0.023 0.079 0.043 0.153 0.067 0.232z" fill="url(#g)" fill-rule="nonzero"/><path d="m10.393 20.263c-0.138-0.514-0.275-1.036-0.415-1.562-0.132-0.506-0.259-1.014-0.385-1.531-0.126-0.516-0.247-1.035-0.369-1.555-0.123-0.532-0.239-1.062-0.35-1.596-0.113-0.526-0.217-1.059-0.321-1.584-0.038-0.191-0.073-0.377-0.106-0.572-0.06-0.325-0.117-0.653-0.173-0.981-5e-3 -0.017-6e-3 -0.036-0.011-0.053l-2.155-1.1c3e-3 0.032 9e-3 0.069 8e-3 0.104 0.043 0.488 0.086 0.983 0.143 1.481 0.057 0.506 0.121 1.013 0.196 1.525 0.064 0.432 0.133 0.861 0.204 1.294 0.015 0.085 0.033 0.174 0.047 0.259 0.099 0.536 0.205 1.054 0.321 1.537 0.128 0.548 0.266 1.062 0.406 1.541 0.094 0.314 0.185 0.616 0.28 0.903 0.081 0.241 0.17 0.484 0.256 0.722 0.206 0.56 0.434 1.104 0.68 1.634l2.177 1.104c-0.116-0.401-0.223-0.808-0.341-1.22-0.03-0.115-0.059-0.23-0.092-0.35z" fill="url(#f)" fill-rule="nonzero"/><path d="m8.681 20.801c0.3 0.642 0.631 1.261 1.002 1.85 0.013 0.018 0.025 0.043 0.038 0.061-0.602-0.242-1.668-0.13-1.661-0.128 1.101 0.382 2.067 0.849 2.676 1.558-0.242 0.267-0.695 0.469-1.265 0.634 0.788 0.086 1.227-0.052 1.388-0.122-0.412 0.343-0.642 0.97-0.844 1.645 0.463-0.757 0.922-1.258 1.37-1.45 0.654 2.167 1.441 4.516 2.313 6.981 0.148-0.19 0.164-0.401 0.102-0.615-0.161-0.443-1.198-3.375-2.382-7.355-0.034-0.112-0.063-0.227-0.101-0.343-0.011-0.033-0.018-0.062-0.029-0.095-0.121-0.417-0.244-0.846-0.37-1.287-0.028-0.103-0.056-0.198-0.084-0.301l-3e-3 -5e-3 -2.178-1.103c8e-3 0.029 0.016 0.05 0.028 0.075z" fill="url(#e)" fill-rule="nonzero"/><path d="m8.52 10.872c0.013 0.073 0.026 0.139 0.039 0.211 0.042 0.216 0.079 0.435 0.124 0.655 0.046 0.239 0.096 0.484 0.144 0.736 0.024 0.126 0.048 0.251 0.075 0.382 0.079 0.387 0.164 0.782 0.251 1.19 0.109 0.502 0.227 1.017 0.354 1.553 0.119 0.508 0.247 1.036 0.382 1.573 0.13 0.513 0.262 1.039 0.408 1.582 0.127 0.481 0.264 0.975 0.404 1.482 4e-3 0.024 0.016 0.049 0.02 0.074 0.14 0.498 0.286 1.014 0.438 1.538 2e-3 0.012 4e-3 0.024 0.011 0.033l0.657-0.605c-0.017 5e-3 -0.03 0.015-0.051 0.024 0.779-0.736 1.447-2.212 1.6-3.541 0.07-0.613 0.064-1.264-0.02-1.975-0.061-0.53-0.169-1.087-0.317-1.69-0.129-0.521-0.289-1.074-0.483-1.656-0.121 0.246-0.292 0.488-0.502 0.724-0.038 0.042-0.076 0.083-0.114 0.125-0.038 0.041-0.079 0.078-0.121 0.123 0.575-0.894 0.643-1.854 0.473-2.85-0.105 0.295-0.31 0.733-0.651 1.127-0.043 0.052-0.094 0.103-0.146 0.155-0.013 0.01-0.023 0.024-0.041 0.037 0.191-0.318 0.332-0.62 0.422-0.925 0.022-0.064 0.036-0.129 0.05-0.194 0.023-0.099 0.038-0.199 0.053-0.299 7e-3 -0.067 0.016-0.128 0.022-0.194 0.012-0.152 0.012-0.31-2e-3 -0.47-4e-3 -0.052-5e-3 -0.099-0.013-0.148-0.013-0.073-0.022-0.141-0.036-0.207-0.052-0.303-0.11-0.569-0.169-0.799-0.03-0.115-0.057-0.218-0.086-0.313-0.014-0.037-0.02-0.074-0.034-0.111-0.035-0.104-0.064-0.2-0.095-0.279-0.046-0.118-0.086-0.211-0.12-0.275-0.01 0.042-0.025 0.087-0.048 0.131-0.135 0.318-0.451 0.755-0.738 1.062l0.605-0.554-0.605 0.554c-5e-3 3e-3 -9e-3 6e-3 -0.011 0.014-0.027 0.027-0.06 0.058-0.089 0.093 1e-3 -8e-3 0.01-0.014 0.012-0.022l-2.07 1.895c0.017 0.015 0.019 0.027 0.018 0.034z" fill="url(#d)" fill-rule="nonzero"/><path d="m7.72 4.47c0.025 0.454 0.065 0.965 0.116 1.529 3e-3 0.032 3e-3 0.059 0.01 0.088 0.047 0.492 0.108 1.022 0.184 1.602 0.066 0.499 0.139 1.027 0.229 1.597 0.074 0.493 0.165 1.008 0.258 1.554l2.07-1.895c0.432-0.782 0.526-1.268 0.52-1.872-3e-3 -0.163-0.012-0.334-0.025-0.509-0.033-0.53-0.096-1.092-0.187-1.634-0.085-0.526-0.189-1.031-0.308-1.463-0.075-0.28-0.155-0.529-0.237-0.743-0.074-0.185-0.15-0.354-0.228-0.516-0.764 0.786-1.731 1.715-2.402 2.262z" fill="url(#c)" fill-rule="nonzero"/><path d="m11.956 13.289c-0.038 0.041-0.079 0.079-0.122 0.123 0.038-0.041 0.076-0.083 0.122-0.123z" fill="#be202e" fill-rule="nonzero"/><path d="m11.956 13.289c-0.038 0.041-0.079 0.079-0.122 0.123 0.038-0.041 0.076-0.083 0.122-0.123z" fill="#be202e" fill-opacity=".35" fill-rule="nonzero"/><path d="m11.956 13.289c-0.038 0.041-0.079 0.079-0.122 0.123 0.038-0.041 0.076-0.083 0.122-0.123z" fill="url(#b)" fill-rule="nonzero"/><path d="m11.466 11.877c0.014-0.01 0.024-0.024 0.042-0.037-0.014 9e-3 -0.024 0.024-0.042 0.037z" fill="#be202e" fill-rule="nonzero"/><path d="m11.466 11.877c0.014-0.01 0.024-0.024 0.042-0.037-0.014 9e-3 -0.024 0.024-0.042 0.037z" fill="#be202e" fill-opacity=".35" fill-rule="nonzero"/><path d="m11.466 11.877c0.014-0.01 0.024-0.024 0.042-0.037-0.014 9e-3 -0.024 0.024-0.042 0.037z" fill="url(#a)" fill-rule="nonzero"/><path d="m11.471 11.873z" fill="#be202e" fill-rule="nonzero"/><path d="m11.471 11.873z" fill="#be202e" fill-opacity=".35" fill-rule="nonzero"/><path d="m11.471 11.873z" fill="url(#s)" fill-rule="nonzero"/><path d="m27.646 1.111c-0.564 0.232-1.554 0.969-2.763 2.072l0.683 1.921c0.8-0.853 1.603-1.605 2.389-2.233 0.057-0.049 0.093-0.075 0.093-0.075-0.03 0.027-0.064 0.047-0.093 0.075-0.258 0.208-1.038 0.887-2.271 2.288 0.976 0.093 2.492 0.114 3.738 0.083 0.661-1.971 0.081-3.001 0.081-3.001s-0.697-1.609-1.857-1.13z" fill="url(#r)" fill-rule="nonzero"/><path d="m24.549 11.044c7e-3 1e-3 0.013 2e-3 0.02-4e-3l-0.138-7e-3c-7e-3 5e-3 -0.019 3e-3 -0.026 9e-3 0.05 1e-3 0.1 2e-3 0.144 2e-3z" fill="none"/><path d="m23.119 14.093c-0.077 7e-3 -0.159 8e-3 -0.241 8e-3 0.082-0 0.164-1e-3 0.241-8e-3z" fill="none"/><path d="m15.515 20.295c0.016-0.023 0.027-0.053 0.043-0.076 0.29-0.518 0.571-1.019 0.852-1.514 0.313-0.546 0.625-1.08 0.928-1.597 0.318-0.539 0.635-1.066 0.942-1.57 0.324-0.532 0.638-1.041 0.95-1.531 0.254-0.397 0.499-0.784 0.743-1.157 0.082-0.127 0.163-0.248 0.243-0.368 0.162-0.241 0.316-0.477 0.469-0.707 0.145-0.212 0.283-0.418 0.42-0.625 0.048-0.069 0.096-0.137 0.137-0.201 8e-3 -0.011 0.016-0.023 0.024-0.034l-0.119-5e-3 -0.067-0.192c-9e-3 0.017-0.024 0.034-0.033 0.052-0.214 0.302-0.43 0.611-0.64 0.927-0.121 0.177-0.242 0.361-0.37 0.544-0.339 0.505-0.671 1.011-0.999 1.53-0.335 0.518-0.664 1.044-0.986 1.564-0.321 0.513-0.63 1.029-0.939 1.545-0.309 0.515-0.611 1.026-0.906 1.537-0.312 0.534-0.617 1.063-0.908 1.588-0.067 0.116-0.136 0.238-0.197 0.355-0.239 0.425-0.47 0.839-0.694 1.253l0.105 0.312 0.131 7e-3c8e-3 -0.012 0.016-0.023 0.018-0.035 0.278-0.558 0.57-1.089 0.853-1.602z" fill="none"/><path d="m22.815 14.099z" fill="none"/><path d="m22.272 15.613c-0.127 7e-3 -0.253 7e-3 -0.38 8e-3 0.063 3e-3 0.133 0 0.196-3e-3 0.063 3e-3 0.126-0 0.184-5e-3z" fill="#be202e" fill-rule="nonzero"/><path d="m22.272 15.613c-0.127 7e-3 -0.253 7e-3 -0.38 8e-3 0.063 3e-3 0.133 0 0.196-3e-3 0.063 3e-3 0.126-0 0.184-5e-3z" fill="#be202e" fill-opacity=".35" fill-rule="nonzero"/><path d="m22.822 14.099c-7e-3 -0-7e-3 -0-0 0 0.018 3e-3 0.037-0 0.056 2e-3 0.082-0 0.164-1e-3 0.241-8e-3 -0.095 5e-3 -0.196 2e-3 -0.297 6e-3z" fill="#be202e" fill-rule="nonzero"/><path d="m22.822 14.099c-7e-3 -0-7e-3 -0-0 0 0.018 3e-3 0.037-0 0.056 2e-3 0.082-0 0.164-1e-3 0.241-8e-3 -0.095 5e-3 -0.196 2e-3 -0.297 6e-3z" fill="#be202e" fill-opacity=".35" fill-rule="nonzero"/><path d="m22.102 9.298c0.368-0.494 0.735-0.976 1.1-1.446 0.381-0.486 0.764-0.953 1.152-1.406 0.023-0.029 0.046-0.057 0.069-0.079 0.38-0.442 0.757-0.865 1.138-1.27l-0.684-1.915c-0.08 0.076-0.167 0.152-0.255 0.233-0.321 0.3-0.658 0.622-1.005 0.968-0.391 0.391-0.793 0.804-1.21 1.241-0.38 0.404-0.771 0.832-1.163 1.273-0.333 0.38-0.667 0.765-1.003 1.164-0.015 0.016-0.023 0.028-0.038 0.045l0.872 2.605c0.347-0.473 0.687-0.946 1.027-1.413z" fill="url(#q)" fill-rule="nonzero"/><path d="m14.498 22.156c-0.225 0.421-0.459 0.853-0.688 1.298-1e-3 7e-3 -8e-3 0.012-9e-3 0.018-0.035 0.064-0.069 0.122-0.097 0.188-0.157 0.298-0.291 0.568-0.608 1.177 0.34 0.22 0.566 0.695 0.766 1.228 0.044-0.516-0.095-1.029-0.442-1.458 1.771 0.342 3.38 0.118 4.362-1.074 0.085-0.107 0.171-0.221 0.251-0.341-0.431 0.403-0.904 0.535-1.742 0.362l-6e-3 -1e-3 6e-3 1e-3c1.322-0.374 2.024-0.819 2.702-1.621 0.161-0.19 0.324-0.4 0.49-0.634-1.249 0.958-2.554 1.088-3.846 0.652l-1.009-0.034c-0.044 0.082-0.086 0.157-0.13 0.239z" fill="url(#p)" fill-rule="nonzero"/><path d="m15.288 19.997c0.297-0.524 0.602-1.053 0.907-1.588 0.296-0.511 0.597-1.022 0.906-1.537 0.309-0.516 0.624-1.031 0.939-1.545 0.323-0.527 0.652-1.046 0.986-1.564 0.327-0.513 0.667-1.024 1-1.53 0.121-0.184 0.242-0.361 0.37-0.544 0.209-0.31 0.424-0.619 0.64-0.927 9e-3 -0.018 0.024-0.035 0.033-0.052l-0.861-2.597c-0.023 0.028-0.047 0.062-0.076 0.089-0.353 0.428-0.712 0.86-1.062 1.307-0.356 0.452-0.707 0.911-1.053 1.383-0.292 0.399-0.578 0.798-0.864 1.203-0.056 0.08-0.113 0.167-0.169 0.247-0.345 0.51-0.671 1.01-0.962 1.491-0.332 0.544-0.629 1.067-0.898 1.564-0.174 0.327-0.34 0.643-0.492 0.949-0.126 0.258-0.247 0.524-0.367 0.784-0.279 0.615-0.528 1.234-0.751 1.856l0.876 2.619c0.225-0.415 0.462-0.828 0.694-1.254 0.068-0.116 0.135-0.232 0.204-0.354z" fill="url(#o)" fill-rule="nonzero"/><path d="m13.482 19.07c-0.268 0.755-0.493 1.516-0.663 2.285-3e-3 0.025-0.014 0.055-0.018 0.08-0.292-0.674-1.24-1.43-1.234-1.423 0.583 1.182 0.988 2.326 0.916 3.38-0.407 0.022-0.933-0.175-1.523-0.494 0.567 0.694 1.03 0.932 1.215 1.004-0.604-0.051-1.288 0.271-1.987 0.653 0.974-0.241 1.743-0.28 2.255-0.078-1.195 2.264-2.428 4.78-3.685 7.458 0.27-0.036 0.451-0.193 0.572-0.415 0.222-0.484 1.717-3.668 3.926-7.813 0.061-0.117 0.129-0.233 0.191-0.356 0.017-0.035 0.034-0.064 0.052-0.1 0.234-0.432 0.475-0.875 0.725-1.33 0.059-0.105 0.112-0.205 0.171-0.309l1e-3 -7e-3 -0.876-2.618c-0.017 0.029-0.027 0.053-0.038 0.083z" fill="url(#n)" fill-rule="nonzero"/><path d="m21.242 10.949c-0.048 0.069-0.089 0.132-0.137 0.201-0.137 0.207-0.281 0.412-0.42 0.625-0.153 0.23-0.307 0.466-0.469 0.707-0.08 0.12-0.161 0.241-0.243 0.368-0.244 0.373-0.489 0.76-0.743 1.157-0.312 0.49-0.626 0.999-0.95 1.531-0.307 0.504-0.624 1.031-0.942 1.57-0.303 0.517-0.614 1.045-0.928 1.597-0.28 0.489-0.562 0.996-0.852 1.514-0.016 0.023-0.027 0.053-0.043 0.076-0.283 0.513-0.575 1.044-0.869 1.587-8e-3 0.011-0.016 0.022-0.018 0.035l1.009 0.034c-0.017-8e-3 -0.036-0.011-0.059-0.021 1.212 0.027 2.922-0.63 4.101-1.579 0.543-0.437 1.056-0.967 1.553-1.606 0.373-0.475 0.728-1.009 1.088-1.612 0.309-0.522 0.62-1.094 0.926-1.717-0.292 0.102-0.622 0.161-0.979 0.184-0.063 3e-3 -0.127 7e-3 -0.19 0.01-0.064 3e-3 -0.126 0-0.196 3e-3 1.173-0.263 1.991-0.981 2.645-1.919-0.319 0.155-0.832 0.344-1.419 0.391-0.076 7e-3 -0.158 8e-3 -0.24 8e-3 -0.019-2e-3 -0.038 1e-3 -0.063-2e-3 0.406-0.105 0.759-0.236 1.075-0.41 0.068-0.034 0.131-0.075 0.193-0.117 0.098-0.061 0.19-0.129 0.282-0.198 0.057-0.048 0.114-0.09 0.171-0.138 0.13-0.114 0.256-0.24 0.371-0.381 0.038-0.045 0.076-0.083 0.107-0.129 0.048-0.069 0.095-0.131 0.136-0.195 0.2-0.285 0.364-0.545 0.499-0.777 0.067-0.117 0.127-0.221 0.179-0.321 0.019-0.041 0.043-0.075 0.061-0.117 0.055-0.112 0.107-0.211 0.145-0.3 0.057-0.13 0.098-0.238 0.122-0.316-0.041 0.025-0.089 0.05-0.142 0.067-0.362 0.149-0.963 0.25-1.439 0.268l0.928 0.035-0.928-0.035c-6e-3 -1e-3 -0.012-2e-3 -0.019 4e-3 -0.044-1e-3 -0.094-2e-3 -0.145 4e-3 7e-3 -6e-3 0.019-4e-3 0.026-9e-3l-3.172-0.119c3e-3 0.026-5e-3 0.037-0.012 0.042z" fill="url(#m)" fill-rule="nonzero"/><path d="m25.684 5.159c-0.34 0.385-0.714 0.829-1.121 1.324-0.023 0.028-0.045 0.05-0.062 0.079-0.353 0.433-0.726 0.908-1.124 1.436-0.344 0.453-0.705 0.936-1.086 1.467-0.331 0.455-0.667 0.942-1.026 1.456l3.172 0.119c0.968-0.287 1.431-0.603 1.906-1.094 0.127-0.133 0.255-0.278 0.384-0.429 0.395-0.453 0.79-0.956 1.148-1.464 0.349-0.491 0.667-0.98 0.915-1.423 0.161-0.285 0.295-0.549 0.399-0.786 0.087-0.208 0.16-0.405 0.226-0.597-1.239 0.026-2.755 5e-3 -3.731-0.088z" fill="url(#l)" fill-rule="nonzero"/><path d="m22.087 15.624c-0.063 3e-3 -0.126 1e-3 -0.195 3e-3 0.063-3e-3 0.127-7e-3 0.195-3e-3z" fill="#be202e" fill-rule="nonzero"/><path d="m22.087 15.624c-0.063 3e-3 -0.126 1e-3 -0.195 3e-3 0.063-3e-3 0.127-7e-3 0.195-3e-3z" fill="#be202e" fill-opacity=".35" fill-rule="nonzero"/><path d="m22.087 15.624c-0.063 3e-3 -0.126 1e-3 -0.195 3e-3 0.063-3e-3 0.127-7e-3 0.195-3e-3z" fill="url(#k)" fill-rule="nonzero"/><path d="m22.815 14.099c0.019 2e-3 0.038-1e-3 0.063 2e-3 -0.019-2e-3 -0.038 1e-3 -0.063-2e-3z" fill="#be202e" fill-rule="nonzero"/><path d="m22.815 14.099c0.019 2e-3 0.038-1e-3 0.063 2e-3 -0.019-2e-3 -0.038 1e-3 -0.063-2e-3z" fill="#be202e" fill-opacity=".35" fill-rule="nonzero"/><path d="m22.815 14.099c0.019 2e-3 0.038-1e-3 0.063 2e-3 -0.019-2e-3 -0.038 1e-3 -0.063-2e-3z" fill="url(#j)" fill-rule="nonzero"/><path d="m22.822 14.099z" fill="#be202e" fill-rule="nonzero"/><path d="m22.822 14.099z" fill="#be202e" fill-opacity=".35" fill-rule="nonzero"/><path d="m22.822 14.099z" fill="url(#h)" fill-rule="nonzero"/><defs><linearGradient id="t" x2="1" gradientTransform="matrix(3.9671 -5.0438 5.0438 3.9671 6.6824 3.4527)" gradientUnits="userSpaceOnUse"><stop stop-color="#f69923" offset="0"/><stop stop-color="#f79a23" offset=".31"/><stop stop-color="#e97826" offset=".84"/><stop stop-color="#e97826" offset="1"/></linearGradient><linearGradient id="i" x2="1" gradientTransform="matrix(-5.8189 -29.181 29.181 -5.8189 12.191 33.829)" gradientUnits="userSpaceOnUse"><stop stop-color="#9e2064" offset="0"/><stop stop-color="#9e2064" offset=".32"/><stop stop-color="#c92037" offset=".63"/><stop stop-color="#cd2335" offset=".75"/><stop stop-color="#e97826" offset="1"/></linearGradient><linearGradient id="g" x2="1" gradientTransform="matrix(-3.4675 -17.389 17.389 -3.4675 14.415 29.723)" gradientUnits="userSpaceOnUse"><stop stop-color="#282662" offset="0"/><stop stop-color="#662e8d" offset=".1"/><stop stop-color="#9f2064" offset=".79"/><stop stop-color="#cd2032" offset=".95"/><stop stop-color="#cd2032" offset="1"/></linearGradient><linearGradient id="f" x2="1" gradientTransform="matrix(-5.819 -29.181 29.181 -5.819 11.592 32.244)" gradientUnits="userSpaceOnUse"><stop stop-color="#9e2064" offset="0"/><stop stop-color="#9e2064" offset=".32"/><stop stop-color="#c92037" offset=".63"/><stop stop-color="#cd2335" offset=".75"/><stop stop-color="#e97826" offset="1"/></linearGradient><linearGradient id="e" x2="1" gradientTransform="matrix(-3.058 -15.335 15.335 -3.058 11.562 30.037)" gradientUnits="userSpaceOnUse"><stop stop-color="#282662" offset="0"/><stop stop-color="#662e8d" offset=".1"/><stop stop-color="#9f2064" offset=".79"/><stop stop-color="#cd2032" offset=".95"/><stop stop-color="#cd2032" offset="1"/></linearGradient><linearGradient id="d" x2="1" gradientTransform="matrix(-5.819 -29.181 29.181 -5.819 14.612 31.642)" gradientUnits="userSpaceOnUse"><stop stop-color="#9e2064" offset="0"/><stop stop-color="#9e2064" offset=".32"/><stop stop-color="#c92037" offset=".63"/><stop stop-color="#cd2335" offset=".75"/><stop stop-color="#e97826" offset="1"/></linearGradient><linearGradient id="c" x2="1" gradientTransform="matrix(-5.819 -29.181 29.181 -5.819 14.823 33.482)" gradientUnits="userSpaceOnUse"><stop stop-color="#9e2064" offset="0"/><stop stop-color="#9e2064" offset=".32"/><stop stop-color="#c92037" offset=".63"/><stop stop-color="#cd2335" offset=".75"/><stop stop-color="#e97826" offset="1"/></linearGradient><linearGradient id="b" x2="1" gradientTransform="matrix(-5.819 -29.181 29.181 -5.819 15.51 31.463)" gradientUnits="userSpaceOnUse"><stop stop-color="#9e2064" offset="0"/><stop stop-color="#9e2064" offset=".32"/><stop stop-color="#c92037" offset=".63"/><stop stop-color="#cd2335" offset=".75"/><stop stop-color="#e97826" offset="1"/></linearGradient><linearGradient id="a" x2="1" gradientTransform="matrix(-5.819 -29.181 29.181 -5.819 15.408 31.483)" gradientUnits="userSpaceOnUse"><stop stop-color="#9e2064" offset="0"/><stop stop-color="#9e2064" offset=".32"/><stop stop-color="#c92037" offset=".63"/><stop stop-color="#cd2335" offset=".75"/><stop stop-color="#e97826" offset="1"/></linearGradient><linearGradient id="s" x2="1" gradientTransform="matrix(-1.2862 -6.4499 6.4499 -1.2862 12.118 15.094)" gradientUnits="userSpaceOnUse"><stop stop-color="#9e2064" offset="0"/><stop stop-color="#9e2064" offset=".32"/><stop stop-color="#c92037" offset=".63"/><stop stop-color="#cd2335" offset=".75"/><stop stop-color="#e97826" offset="1"/></linearGradient><linearGradient id="r" x2="1" gradientTransform="matrix(7.201 -.90844 .90844 7.201 25.657 3.5161)" gradientUnits="userSpaceOnUse"><stop stop-color="#f69923" offset="0"/><stop stop-color="#f79a23" offset=".31"/><stop stop-color="#e97826" offset=".84"/><stop stop-color="#e97826" offset="1"/></linearGradient><linearGradient id="q" x2="1" gradientTransform="matrix(18.5 -28.114 28.114 18.5 5.9572 32.346)" gradientUnits="userSpaceOnUse"><stop stop-color="#9e2064" offset="0"/><stop stop-color="#9e2064" offset=".32"/><stop stop-color="#c92037" offset=".63"/><stop stop-color="#cd2335" offset=".75"/><stop stop-color="#e97826" offset="1"/></linearGradient><linearGradient id="p" x2="1" gradientTransform="matrix(11.024 -16.753 16.753 11.024 11.01 30.808)" gradientUnits="userSpaceOnUse"><stop stop-color="#282662" offset="0"/><stop stop-color="#662e8d" offset=".1"/><stop stop-color="#9f2064" offset=".79"/><stop stop-color="#cd2032" offset=".95"/><stop stop-color="#cd2032" offset="1"/></linearGradient><linearGradient id="o" x2="1" gradientTransform="matrix(18.5 -28.114 28.114 18.5 6.7343 30.594)" gradientUnits="userSpaceOnUse"><stop stop-color="#9e2064" offset="0"/><stop stop-color="#9e2064" offset=".32"/><stop stop-color="#c92037" offset=".63"/><stop stop-color="#cd2335" offset=".75"/><stop stop-color="#e97826" offset="1"/></linearGradient><linearGradient id="n" x2="1" gradientTransform="matrix(9.7225 -14.775 14.775 9.7225 8.464 28.794)" gradientUnits="userSpaceOnUse"><stop stop-color="#282662" offset="0"/><stop stop-color="#662e8d" offset=".1"/><stop stop-color="#9f2064" offset=".79"/><stop stop-color="#cd2032" offset=".95"/><stop stop-color="#cd2032" offset="1"/></linearGradient><linearGradient id="m" x2="1" gradientTransform="matrix(18.5 -28.114 28.114 18.5 9.644 32.509)" gradientUnits="userSpaceOnUse"><stop stop-color="#9e2064" offset="0"/><stop stop-color="#9e2064" offset=".32"/><stop stop-color="#c92037" offset=".63"/><stop stop-color="#cd2335" offset=".75"/><stop stop-color="#e97826" offset="1"/></linearGradient><linearGradient id="l" x2="1" gradientTransform="matrix(18.5 -28.114 28.114 18.5 8.3519 34.158)" gradientUnits="userSpaceOnUse"><stop stop-color="#9e2064" offset="0"/><stop stop-color="#9e2064" offset=".32"/><stop stop-color="#c92037" offset=".63"/><stop stop-color="#cd2335" offset=".75"/><stop stop-color="#e97826" offset="1"/></linearGradient><linearGradient id="k" x2="1" gradientTransform="matrix(18.5 -28.114 28.114 18.5 10.509 33.079)" gradientUnits="userSpaceOnUse"><stop stop-color="#9e2064" offset="0"/><stop stop-color="#9e2064" offset=".32"/><stop stop-color="#c92037" offset=".63"/><stop stop-color="#cd2335" offset=".75"/><stop stop-color="#e97826" offset="1"/></linearGradient><linearGradient id="j" x2="1" gradientTransform="matrix(18.5 -28.114 28.114 18.5 10.41 33.014)" gradientUnits="userSpaceOnUse"><stop stop-color="#9e2064" offset="0"/><stop stop-color="#9e2064" offset=".32"/><stop stop-color="#c92037" offset=".63"/><stop stop-color="#cd2335" offset=".75"/><stop stop-color="#e97826" offset="1"/></linearGradient><linearGradient id="h" x2="1" gradientTransform="matrix(4.0892 -6.2142 6.2142 4.0892 20.784 17.206)" gradientUnits="userSpaceOnUse"><stop stop-color="#9e2064" offset="0"/><stop stop-color="#9e2064" offset=".32"/><stop stop-color="#c92037" offset=".63"/><stop stop-color="#cd2335" offset=".75"/><stop stop-color="#e97826" offset="1"/></linearGradient></defs></svg>
