<svg viewBox="0 0 24 24" fill="currentColor" xmlns="http://www.w3.org/2000/svg"><path xmlns="http://www.w3.org/2000/svg" d="M1 12.005c1.042-.549 1.85-1.203 2.424-1.963.595-.78.935-1.699 1.02-2.754a2.238 2.238 0 0 1-.765.126c-.744 0-1.36-.232-1.85-.696-.489-.486-.733-1.109-.733-1.868 0-.866.255-1.552.765-2.058C2.371 2.264 3.02 2 3.806 2c1.02 0 1.829.401 2.424 1.203.595.781.893 1.868.893 3.261 0 1.647-.436 3.114-1.308 4.401-.85 1.288-2.104 2.333-3.763 3.135L1 12.005zm7.877 0c1.042-.549 1.85-1.203 2.424-1.963.595-.78.935-1.699 1.02-2.754a2.239 2.239 0 0 1-.765.126c-.744 0-1.36-.232-1.85-.696-.489-.486-.733-1.109-.733-1.868 0-.866.255-1.552.765-2.058.51-.528 1.159-.792 1.945-.792 1.02 0 1.829.401 2.424 1.203.595.781.893 1.868.893 3.261 0 1.647-.436 3.114-1.307 4.401-.85 1.288-2.105 2.333-3.764 3.135l-1.052-1.995z"/></svg>
